<svg xmlns:xlink="http://www.w3.org/1999/xlink" xmlns="http://www.w3.org/2000/svg" viewBox="0 0 312.5 312.5" preserveAspectRatio="xMidYMid meet" class="css-116ckqy" id="hhdfhffe" width="312.5"  height="312.5" ><defs id="SvgjsDefs1493"></defs><g id="SvgjsG1494" featurekey="rootContainer" transform="matrix(3.125,0,0,3.125,0,0)" fill="#155263"><circle xmlns="http://www.w3.org/2000/svg" cx="50" cy="50" r="50" fill="#155263"></circle></g><g id="SvgjsG1495" featurekey="nameFeature-0" transform="matrix(1.405283945688057,0,0,1.405283945688057,52.346261875229374,99.82293445871555)" fill="#FFC93C"><path d="M26.16 12 l5.24 0 l0 28 l-5.48 0 l0 -18.44 l-8.92 12.36 l-8.92 -12.36 l0 18.44 l-5.48 0 l0 -28 l5.24 0 l9.16 13.24 z M45.36 40.56 c-5.6 0 -10 -4.56 -10 -10.68 c0 -6.16 4.4 -10.68 10 -10.68 c2.84 0 5.08 1.16 6.52 3 l0 -2.44 l5.32 0 l0 20.24 l-5.32 0 l0 -2.48 c-1.44 1.84 -3.68 3.04 -6.52 3.04 z M46.28 35.84 c3.2 0 5.76 -2.48 5.76 -6 c0 -3.48 -2.56 -5.92 -5.76 -5.92 c-3.32 0 -5.68 2.44 -5.68 5.92 c0 3.52 2.36 6 5.68 6 z M77.56 19.76 l5.28 0 l0 19.52 c0 5.64 -4.12 9.68 -10.44 9.68 c-4.96 0 -8.08 -2.28 -9.76 -5.32 l4.6 -1.64 c1.04 1.64 2.72 2.6 5.28 2.6 c3.32 0 5 -2.32 5.04 -5.32 l0 -2.44 c-1.52 1.88 -3.72 2.92 -6.4 2.92 c-5.8 0 -10 -4.52 -10 -10.28 c0 -6.08 4.2 -10.28 10 -10.28 c2.68 0 4.88 1.04 6.4 2.92 l0 -2.36 z M72.08 35 c3.24 0 5.6 -2.24 5.6 -5.52 c0 -3.24 -2.36 -5.52 -5.6 -5.52 c-3.36 0 -5.68 2.24 -5.68 5.52 s2.32 5.52 5.68 5.52 z M103.32 10.8 l5.32 0 l0 29.2 l-5.32 0 l0 -2.48 c-1.44 1.84 -3.68 3.04 -6.52 3.04 c-5.6 0 -10 -4.56 -10 -10.68 c0 -6.16 4.4 -10.68 10 -10.68 c2.84 0 5.08 1.16 6.52 3 l0 -11.4 z M97.72 35.84 c3.2 0 5.76 -2.48 5.76 -6 c0 -3.48 -2.56 -5.92 -5.76 -5.92 c-3.32 0 -5.68 2.44 -5.68 5.92 c0 3.52 2.36 6 5.68 6 z M122.6 40.56 c-5.6 0 -10 -4.56 -10 -10.68 c0 -6.16 4.4 -10.68 10 -10.68 c2.84 0 5.08 1.16 6.52 3 l0 -2.44 l5.32 0 l0 20.24 l-5.32 0 l0 -2.48 c-1.44 1.84 -3.68 3.04 -6.52 3.04 z M123.52 35.84 c3.2 0 5.76 -2.48 5.76 -6 c0 -3.48 -2.56 -5.92 -5.76 -5.92 c-3.32 0 -5.68 2.44 -5.68 5.92 c0 3.52 2.36 6 5.68 6 z M139.64 40 l0 -29.2 l5.28 0 l0 29.2 l-5.28 0 z" fill="#FFC93C"></path></g><g id="SvgjsG1496" featurekey="sloganFeature-0" transform="matrix(1,0,0,1,95.48000001907349,177.82000017166138)" fill="#FFC93C"><path d="M3.48 6.359999999999999 l0 13.64 l-1.96 0 l0 -13.64 l1.96 0 z M19.2 6.359999999999999 l0 13.64 l-1.68 0 l-9.12 -10.5 l0 10.5 l-1.84 0 l0 -13.64 l1.58 0 l9.2 10.58 l0 -10.58 l1.86 0 z M34.379999999999995 6.18 c4.54 0 7.36 3.32 7.36 6.98 c0 3.92 -3 7.02 -7.46 7.02 c-4.28 0 -7.2 -3.16 -7.2 -6.96 c0 -3.62 2.64 -7.04 7.3 -7.04 z M34.46 8.02 c-3.82 0 -5.36 2.92 -5.36 5.2 c0 3.1 2.44 5.14 5.3 5.14 c1.46 0 3.04 -0.6 3.98 -1.62 c0.86 -0.94 1.36 -2.42 1.36 -3.6 c0 -2.26 -1.72 -5.12 -5.28 -5.12 z M55.58 6.359999999999999 l0 7.74 c0 1.32 0 3.22 -1.54 4.6 c-1.22 1.08 -2.74 1.48 -4.3 1.48 c-1.92 0 -4.04 -0.66 -5.12 -2.38 c-0.76 -1.2 -0.76 -2.78 -0.76 -3.7 l0 -7.74 l1.96 0 l0 7.74 c0 1.8 0.16 2.5 0.86 3.2 c0.58 0.6 1.48 1.14 3.06 1.14 c2.2 0 3.16 -1.14 3.52 -1.8 c0.26 -0.48 0.38 -1.2 0.38 -2.54 l0 -7.74 l1.94 0 z M58.36 6.359999999999999 l3.42 0 c0.64 0 1.48 0.06 2.34 0.44 c1.46 0.62 2.14 1.98 2.14 3.36 c0 1.58 -0.8 2.78 -2.28 3.36 c1.24 0.82 2 2.08 3.04 3.76 c0.58 0.94 0.92 1.4 1.86 2.72 l-2.32 0 c-0.46 -0.66 -2.36 -3.64 -2.8 -4.22 c-1.34 -1.72 -2 -1.72 -2.94 -1.72 l-0.52 0 l0 5.94 l-1.94 0 l0 -13.64 z M60.9 8.02 l-0.6 0 l0 4.3 l0.76 0 c0.3 0 1.36 0 1.9 -0.2 c0.92 -0.36 1.3 -1.22 1.3 -1.96 c0 -0.78 -0.4 -1.52 -1.04 -1.82 c-0.5 -0.24 -1.14 -0.32 -2.32 -0.32 z M95.25999999999999 6.359999999999999 l-5.52 13.72 l-0.42 0 l-4.46 -11.12 l-4.5 11.12 l-0.42 0 l-5.5 -13.72 l1.96 0 l3.76 9.4 l3.78 -9.4 l1.86 0 l3.8 9.4 l3.72 -9.4 l1.94 0 z M102.52 6.279999999999999 l6.1 13.72 l-2 0 l-1.82 -4.02 l-5.8 0 l-1.72 4.02 l-2 0 l5.86 -13.72 l1.38 0 z M99.76 14.219999999999999 l4.24 0 l-2.2 -4.94 z M120.7 6.359999999999999 l-5.04 6.42 l0 7.22 l-2 0 l0 -7.22 l-5.04 -6.42 l2.36 0 l3.66 4.7 l3.7 -4.7 l2.36 0 z" fill="#FFC93C"></path></g></svg>